<svg xmlns="http://www.w3.org/2000/svg" viewBox="0 0 400 400" width="400" height="400">
  <rect width="400" height="400" rx="110" fill="#08615B" />
  <path d="M 191.70 93.10 L 192.50 92.70 L 193.50 92.50 L 194.50 92.50 L 195.50 92.50 L 196.50 92.50 L 197.50 92.50 L 198.50 92.50 L 199.50 92.50 L 200.50 92.50 L 201.50 92.50 L 202.50 92.50 L 203.50 92.50 L 204.50 92.50 L 205.50 92.50 L 206.50 92.50 L 207.50 92.50 L 208.50 92.50 L 209.50 92.50 L 210.50 92.50 L 211.50 92.50 L 212.50 92.50 L 213.50 92.50 L 214.50 92.50 L 215.50 92.50 L 216.50 92.50 L 217.50 92.50 L 218.50 92.70 L 219.50 92.90 L 220.50 93.10 L 221.50 93.30 L 222.50 93.50 L 223.50 93.50 L 224.50 93.50 L 225.50 93.70 L 226.50 93.90 L 227.50 94.10 L 228.50 94.30 L 229.50 94.70 L 230.50 94.90 L 231.50 95.10 L 232.50 95.30 L 233.50 95.50 L 234.50 95.70 L 235.50 95.90 L 236.50 96.10 L 237.50 96.50 L 238.50 96.90 L 239.50 97.10 L 240.50 97.30 L 241.50 97.70 L 242.50 97.90 L 243.50 98.30 L 244.50 98.70 L 245.50 99.10 L 246.50 99.50 L 247.50 99.90 L 248.50 100.10 L 249.50 100.50 L 250.50 100.90 L 251.50 101.30 L 252.50 101.70 L 253.50 102.30 L 254.50 102.70 L 255.50 103.30 L 256.50 103.70 L 257.50 104.30 L 258.50 104.70 L 259.50 105.30 L 260.50 105.90 L 261.50 106.50 L 262.50 107.10 L 263.50 107.90 L 264.50 108.50 L 265.50 109.10 L 266.50 109.90 L 267.50 110.50 L 268.50 111.10 L 269.50 111.90 L 270.50 112.70 L 271.50 113.30 L 272.50 114.10 L 273.50 114.90 L 274.50 115.70 L 275.50 116.50 L 276.50 117.50 L 277.50 118.50 L 278.50 119.50 L 279.50 120.50 L 280.50 121.50 L 281.50 122.50 L 282.50 123.50 L 283.50 124.50 L 284.30 125.50 L 285.10 126.50 L 285.90 127.50 L 286.70 128.50 L 287.50 129.50 L 288.30 130.50 L 289.10 131.50 L 289.90 132.50 L 290.50 133.50 L 291.10 134.50 L 291.90 135.50 L 292.50 136.50 L 293.10 137.50 L 293.90 138.50 L 294.50 139.50 L 295.10 140.50 L 295.70 141.50 L 296.30 142.50 L 296.70 143.50 L 297.30 144.50 L 297.70 145.50 L 298.30 146.50 L 298.70 147.50 L 299.30 148.50 L 299.70 149.50 L 300.30 150.50 L 300.70 151.50 L 301.30 152.50 L 301.70 153.50 L 302.10 154.50 L 302.50 155.50 L 302.90 156.50 L 303.10 157.50 L 303.50 158.50 L 303.90 159.50 L 304.10 160.50 L 304.50 161.50 L 304.90 162.50 L 305.10 163.50 L 305.50 164.50 L 305.90 165.50 L 306.10 166.50 L 306.30 167.50 L 306.70 168.50 L 306.90 169.50 L 307.10 170.50 L 307.30 171.50 L 307.70 172.50 L 307.90 173.50 L 308.10 174.50 L 308.30 175.50 L 308.50 176.50 L 308.50 177.50 L 308.70 178.50 L 308.90 179.50 L 309.10 180.50 L 309.30 181.50 L 309.50 182.50 L 309.50 183.50 L 309.50 184.50 L 309.50 185.50 L 309.50 186.50 L 309.70 187.50 L 309.90 188.50 L 310.10 189.50 L 310.30 190.50 L 310.50 191.50 L 310.50 192.50 L 310.50 193.50 L 310.50 194.50 L 310.50 195.50 L 310.50 196.50 L 310.50 197.50 L 310.50 198.50 L 310.50 199.50 L 310.50 200.50 L 310.50 201.50 L 310.50 202.50 L 310.50 203.50 L 310.50 204.50 L 310.50 205.50 L 310.50 206.50 L 310.30 207.50 L 310.10 208.50 L 309.90 209.50 L 309.70 210.50 L 309.50 211.50 L 309.50 212.50 L 309.50 213.50 L 309.50 214.50 L 309.50 215.50 L 309.30 216.50 L 309.10 217.50 L 308.90 218.50 L 308.70 219.50 L 308.50 220.50 L 308.30 221.50 L 308.10 222.50 L 307.90 223.50 L 307.70 224.50 L 307.30 225.50 L 307.10 226.50 L 306.90 227.50 L 306.70 228.50 L 306.30 229.50 L 306.10 230.50 L 305.90 231.50 L 305.70 232.50 L 305.30 233.50 L 305.10 234.50 L 304.70 235.50 L 304.30 236.50 L 303.90 237.50 L 303.50 238.50 L 303.10 239.50 L 302.90 240.50 L 302.50 241.50 L 302.10 242.50 L 301.70 243.50 L 301.30 244.50 L 300.70 245.50 L 300.30 246.50 L 299.90 247.50 L 299.50 248.50 L 299.10 249.50 L 298.70 250.50 L 298.10 251.50 L 297.50 252.50 L 296.90 253.50 L 296.30 254.50 L 295.70 255.50 L 295.30 256.50 L 294.70 257.50 L 294.10 258.50 L 293.50 259.50 L 292.90 260.50 L 292.10 261.50 L 291.50 262.50 L 290.90 263.50 L 290.10 264.50 L 289.50 265.50 L 288.90 266.50 L 288.10 267.50 L 287.30 268.50 L 286.50 269.50 L 285.70 270.50 L 284.90 271.50 L 284.10 272.50 L 283.30 273.50 L 282.50 274.50 L 281.50 275.50 L 280.50 276.50 L 279.50 277.50 L 278.50 278.50 L 277.50 279.50 L 276.50 280.50 L 275.50 281.50 L 274.50 282.50 L 273.50 283.50 L 272.50 284.50 L 271.50 285.50 L 270.50 286.30 L 269.50 287.10 L 268.50 287.90 L 267.50 288.70 L 266.50 289.30 L 265.50 290.10 L 264.50 290.90 L 263.50 291.50 L 262.50 292.10 L 261.50 292.90 L 260.50 293.70 L 259.50 294.30 L 258.50 295.10 L 257.50 295.70 L 256.50 296.30 L 255.50 296.70 L 254.50 297.30 L 253.50 297.90 L 252.50 298.50 L 251.50 299.10 L 250.50 299.70 L 249.50 300.30 L 248.50 300.70 L 247.50 301.30 L 246.50 301.70 L 245.50 302.30 L 244.50 302.70 L 243.50 303.10 L 242.50 303.50 L 241.50 303.90 L 240.50 304.30 L 239.50 304.70 L 238.50 305.30 L 237.50 305.70 L 236.50 306.10 L 235.50 306.50 L 234.50 306.90 L 233.50 307.10 L 232.50 307.50 L 231.50 307.90 L 230.50 308.10 L 229.50 308.30 L 228.50 308.70 L 227.50 308.90 L 226.50 309.10 L 225.50 309.50 L 224.50 309.90 L 223.50 310.10 L 222.50 310.30 L 221.50 310.50 L 220.50 310.70 L 219.50 310.90 L 218.50 311.10 L 217.50 311.30 L 216.50 311.50 L 215.50 311.70 L 214.50 311.90 L 213.50 312.10 L 212.50 312.30 L 211.50 312.50 L 210.50 312.50 L 209.50 312.50 L 208.50 312.50 L 207.50 312.50 L 206.50 312.70 L 205.50 312.90 L 204.50 313.10 L 203.50 313.30 L 202.50 313.50 L 201.50 313.50 L 200.50 313.50 L 199.50 313.50 L 198.50 313.50 L 197.50 313.50 L 196.50 313.50 L 195.50 313.50 L 194.50 313.50 L 193.50 313.50 L 192.50 313.50 L 191.50 313.50 L 190.50 313.50 L 189.50 313.50 L 188.50 313.30 L 187.50 313.10 L 186.50 312.90 L 185.50 312.70 L 184.50 312.50 L 183.50 312.50 L 182.50 312.50 L 181.50 312.50 L 180.50 312.50 L 179.50 312.30 L 178.50 312.10 L 177.50 311.90 L 176.50 311.70 L 175.50 311.50 L 174.50 311.50 L 173.50 311.30 L 172.50 311.10 L 171.50 310.90 L 170.50 310.70 L 169.50 310.50 L 168.50 310.50 L 167.50 310.30 L 166.50 310.10 L 165.50 309.90 L 164.50 309.70 L 163.50 309.50 L 162.50 309.50 L 161.50 309.30 L 160.50 309.10 L 159.50 308.90 L 158.50 308.70 L 157.50 308.50 L 156.50 308.50 L 155.50 308.50 L 154.50 308.50 L 153.50 308.30 L 152.50 308.10 L 151.50 307.90 L 150.50 307.70 L 149.50 307.50 L 148.50 307.50 L 147.50 307.50 L 146.50 307.50 L 145.50 307.50 L 144.50 307.50 L 143.50 307.50 L 142.50 307.50 L 141.50 307.50 L 140.50 307.50 L 139.50 307.50 L 138.50 307.50 L 137.50 307.50 L 136.50 307.50 L 135.50 307.50 L 134.50 307.50 L 133.50 307.50 L 132.50 307.70 L 131.50 307.90 L 130.50 308.10 L 129.50 308.30 L 128.50 308.50 L 127.50 308.50 L 126.50 308.50 L 125.50 308.50 L 124.50 308.50 L 123.50 308.50 L 122.50 308.50 L 121.50 308.50 L 120.50 308.70 L 119.50 308.90 L 118.50 309.10 L 117.50 309.30 L 116.50 309.50 L 115.50 309.50 L 114.50 309.50 L 113.50 309.50 L 112.50 309.50 L 111.50 309.50 L 110.50 309.50 L 109.50 309.50 L 108.50 309.50 L 107.50 309.50 L 106.50 309.50 L 105.50 309.70 L 104.50 309.90 L 103.50 310.10 L 102.50 310.30 L 101.50 310.50 L 100.50 310.50 L 99.50 310.50 L 98.50 310.50 L 97.50 310.50 L 96.50 310.50 L 95.50 310.50 L 94.50 310.50 L 93.50 310.50 L 92.50 310.50 L 91.50 310.30 L 90.50 310.10 L 89.50 309.90 L 88.50 309.70 L 87.50 309.50 L 86.50 309.30 L 85.50 309.10 L 84.70 308.70 L 84.10 308.10 L 83.90 307.30 L 84.10 306.50 L 84.50 305.50 L 85.10 304.50 L 85.70 303.50 L 86.30 302.50 L 86.70 301.50 L 87.30 300.50 L 87.70 299.50 L 88.30 298.50 L 88.70 297.50 L 89.10 296.50 L 89.30 295.50 L 89.70 294.50 L 89.90 293.50 L 90.10 292.50 L 90.30 291.50 L 90.50 290.50 L 90.70 289.50 L 90.90 288.50 L 91.10 287.50 L 91.30 286.50 L 91.50 285.50 L 91.50 284.50 L 91.50 283.50 L 91.50 282.50 L 91.50 281.50 L 91.50 280.50 L 91.50 279.50 L 91.50 278.50 L 91.70 277.50 L 91.90 276.50 L 92.10 275.50 L 92.30 274.50 L 92.50 273.50 L 92.50 272.50 L 92.50 271.50 L 92.30 270.50 L 92.10 269.50 L 91.90 268.50 L 91.70 267.50 L 91.50 266.50 L 91.50 265.50 L 91.50 264.50 L 91.50 263.50 L 91.50 262.50 L 91.50 261.50 L 91.50 260.50 L 91.50 259.50 L 91.50 258.50 L 91.30 257.50 L 91.10 256.50 L 90.90 255.50 L 90.70 254.50 L 90.50 253.50 L 90.30 252.50 L 90.10 251.50 L 89.90 250.50 L 89.70 249.50 L 89.30 248.50 L 89.10 247.50 L 88.90 246.50 L 88.50 245.50 L 88.10 244.50 L 87.70 243.50 L 87.30 242.50 L 86.90 241.50 L 86.50 240.50 L 86.10 239.50 L 85.70 238.50 L 85.30 237.50 L 84.90 236.50 L 84.70 235.50 L 84.30 234.50 L 84.10 233.50 L 83.90 232.50 L 83.50 231.50 L 83.10 230.50 L 82.90 229.50 L 82.70 228.50 L 82.30 227.50 L 82.10 226.50 L 81.90 225.50 L 81.70 224.50 L 81.50 223.50 L 81.30 222.50 L 81.10 221.50 L 80.90 220.50 L 80.70 219.50 L 80.50 218.50 L 80.50 217.50 L 80.50 216.50 L 80.30 215.50 L 80.10 214.50 L 79.90 213.50 L 79.70 212.50 L 79.50 211.50 L 79.50 210.50 L 79.50 209.50 L 79.50 208.50 L 79.50 207.50 L 79.50 206.50 L 79.50 205.50 L 79.50 204.50 L 79.50 203.50 L 79.50 202.50 L 79.50 201.50 L 79.50 200.50 L 79.50 199.50 L 79.50 198.50 L 79.50 197.50 L 79.50 196.50 L 79.50 195.50 L 79.50 194.50 L 79.50 193.50 L 79.50 192.50 L 79.50 191.50 L 79.50 190.50 L 79.50 189.50 L 79.50 188.50 L 79.50 187.50 L 79.50 186.50 L 79.50 185.50 L 79.70 184.50 L 79.90 183.50 L 80.10 182.50 L 80.30 181.50 L 80.50 180.50 L 80.50 179.50 L 80.50 178.50 L 80.70 177.50 L 80.90 176.50 L 81.10 175.50 L 81.30 174.50 L 81.70 173.50 L 81.90 172.50 L 82.10 171.50 L 82.30 170.50 L 82.50 169.50 L 82.70 168.50 L 82.90 167.50 L 83.10 166.50 L 83.50 165.50 L 83.90 164.50 L 84.10 163.50 L 84.50 162.50 L 84.90 161.50 L 85.10 160.50 L 85.50 159.50 L 85.90 158.50 L 86.10 157.50 L 86.50 156.50 L 86.90 155.50 L 87.10 154.50 L 87.50 153.50 L 87.90 152.50 L 88.30 151.50 L 88.70 150.50 L 89.30 149.50 L 89.70 148.50 L 90.30 147.50 L 90.70 146.50 L 91.30 145.50 L 91.70 144.50 L 92.30 143.50 L 92.70 142.50 L 93.30 141.50 L 93.90 140.50 L 94.50 139.50 L 95.10 138.50 L 95.90 137.50 L 96.50 136.50 L 97.10 135.50 L 97.90 134.50 L 98.50 133.50 L 99.10 132.50 L 99.90 131.50 L 100.70 130.50 L 101.50 129.50 L 102.30 128.50 L 103.10 127.50 L 103.90 126.70 L 104.70 125.90 L 105.50 125.30 L 106.50 124.70 L 107.50 124.30 L 108.50 123.90 L 109.50 123.70 L 110.50 123.50 L 111.50 123.50 L 112.50 123.50 L 113.50 123.70 L 114.50 123.90 L 115.50 124.30 L 116.50 124.90 L 117.50 125.70 L 118.30 126.50 L 119.10 127.50 L 119.70 128.50 L 120.10 129.50 L 120.30 130.50 L 120.50 131.50 L 120.50 132.50 L 120.50 133.50 L 120.30 134.50 L 120.10 135.50 L 119.70 136.50 L 119.30 137.50 L 118.70 138.50 L 118.10 139.50 L 117.30 140.50 L 116.50 141.50 L 115.50 142.50 L 114.70 143.50 L 113.90 144.50 L 113.10 145.50 L 112.30 146.50 L 111.70 147.50 L 110.90 148.50 L 110.10 149.50 L 109.50 150.50 L 108.90 151.50 L 108.30 152.50 L 107.70 153.50 L 107.30 154.50 L 106.70 155.50 L 106.30 156.50 L 105.70 157.50 L 105.30 158.50 L 104.70 159.50 L 104.30 160.50 L 103.90 161.50 L 103.50 162.50 L 103.10 163.50 L 102.70 164.50 L 102.30 165.50 L 101.90 166.50 L 101.50 167.50 L 101.10 168.50 L 100.90 169.50 L 100.50 170.50 L 100.10 171.50 L 99.90 172.50 L 99.70 173.50 L 99.30 174.50 L 99.10 175.50 L 98.90 176.50 L 98.70 177.50 L 98.50 178.50 L 98.30 179.50 L 98.10 180.50 L 97.90 181.50 L 97.70 182.50 L 97.50 183.50 L 97.50 184.50 L 97.50 185.50 L 97.30 186.50 L 97.10 187.50 L 96.90 188.50 L 96.70 189.50 L 96.50 190.50 L 96.50 191.50 L 96.50 192.50 L 96.50 193.50 L 96.50 194.50 L 96.50 195.50 L 96.50 196.50 L 96.50 197.50 L 96.50 198.50 L 96.50 199.50 L 96.50 200.50 L 96.50 201.50 L 96.50 202.50 L 96.50 203.50 L 96.50 204.50 L 96.50 205.50 L 96.50 206.50 L 96.50 207.50 L 96.70 208.50 L 96.90 209.50 L 97.10 210.50 L 97.30 211.50 L 97.50 212.50 L 97.50 213.50 L 97.70 214.50 L 97.90 215.50 L 98.10 216.50 L 98.30 217.50 L 98.50 218.50 L 98.70 219.50 L 98.90 220.50 L 99.10 221.50 L 99.30 222.50 L 99.70 223.50 L 99.90 224.50 L 100.10 225.50 L 100.50 226.50 L 100.90 227.50 L 101.10 228.50 L 101.50 229.50 L 101.90 230.50 L 102.10 231.50 L 102.50 232.50 L 102.90 233.50 L 103.30 234.50 L 103.70 235.50 L 104.10 236.50 L 104.50 237.50 L 105.10 238.50 L 105.50 239.50 L 105.90 240.50 L 106.50 241.50 L 106.90 242.50 L 107.30 243.50 L 107.90 244.50 L 108.50 245.50 L 109.10 246.50 L 109.70 247.50 L 110.30 248.50 L 110.90 249.50 L 111.50 250.50 L 112.10 251.50 L 112.90 252.50 L 113.50 253.50 L 114.10 254.50 L 114.90 255.50 L 115.70 256.50 L 116.50 257.50 L 117.30 258.50 L 118.10 259.50 L 118.90 260.50 L 119.70 261.50 L 120.50 262.50 L 121.50 263.50 L 122.50 264.50 L 123.50 265.50 L 124.50 266.50 L 125.50 267.50 L 126.50 268.50 L 127.50 269.50 L 128.50 270.50 L 129.50 271.30 L 130.50 272.10 L 131.50 272.90 L 132.50 273.70 L 133.50 274.50 L 134.50 275.30 L 135.50 276.10 L 136.50 276.90 L 137.50 277.50 L 138.50 278.10 L 139.50 278.90 L 140.50 279.50 L 141.50 280.10 L 142.50 280.70 L 143.50 281.30 L 144.50 281.70 L 145.50 282.30 L 146.50 282.90 L 147.50 283.50 L 148.50 284.10 L 149.50 284.70 L 150.50 285.10 L 151.50 285.50 L 152.50 285.90 L 153.50 286.30 L 154.50 286.70 L 155.50 287.30 L 156.50 287.70 L 157.50 288.10 L 158.50 288.50 L 159.50 288.90 L 160.50 289.10 L 161.50 289.50 L 162.50 289.90 L 163.50 290.10 L 164.50 290.50 L 165.50 290.90 L 166.50 291.10 L 167.50 291.30 L 168.50 291.70 L 169.50 291.90 L 170.50 292.10 L 171.50 292.30 L 172.50 292.50 L 173.50 292.70 L 174.50 292.90 L 175.50 293.10 L 176.50 293.30 L 177.50 293.50 L 178.50 293.50 L 179.50 293.50 L 180.50 293.70 L 181.50 293.90 L 182.50 294.10 L 183.50 294.30 L 184.50 294.50 L 185.50 294.50 L 186.50 294.50 L 187.50 294.50 L 188.50 294.50 L 189.50 294.50 L 190.50 294.50 L 191.50 294.50 L 192.50 294.50 L 193.50 294.50 L 194.50 294.50 L 195.50 294.50 L 196.50 294.50 L 197.50 294.50 L 198.50 294.50 L 199.50 294.50 L 200.50 294.50 L 201.50 294.50 L 202.50 294.50 L 203.50 294.50 L 204.50 294.50 L 205.50 294.30 L 206.50 294.10 L 207.50 293.90 L 208.50 293.70 L 209.50 293.50 L 210.50 293.50 L 211.50 293.50 L 212.50 293.30 L 213.50 293.10 L 214.50 292.90 L 215.50 292.70 L 216.50 292.50 L 217.50 292.30 L 218.50 292.10 L 219.50 291.90 L 220.50 291.70 L 221.50 291.30 L 222.50 291.10 L 223.50 290.90 L 224.50 290.50 L 225.50 290.10 L 226.50 289.90 L 227.50 289.50 L 228.50 289.10 L 229.50 288.90 L 230.50 288.50 L 231.50 288.10 L 232.50 287.70 L 233.50 287.30 L 234.50 286.70 L 235.50 286.30 L 236.50 285.70 L 237.50 285.30 L 238.50 284.70 L 239.50 284.30 L 240.50 283.70 L 241.50 283.30 L 242.50 282.70 L 243.50 282.30 L 244.50 281.70 L 245.50 281.30 L 246.50 280.70 L 247.50 280.10 L 248.50 279.50 L 249.50 278.90 L 250.50 278.10 L 251.50 277.30 L 252.50 276.70 L 253.50 275.90 L 254.50 275.10 L 255.50 274.30 L 256.50 273.70 L 257.50 272.90 L 258.50 272.10 L 259.50 271.30 L 260.50 270.50 L 261.50 269.50 L 262.50 268.50 L 263.50 267.50 L 264.50 266.50 L 265.50 265.50 L 266.50 264.50 L 267.50 263.50 L 268.50 262.50 L 269.50 261.50 L 270.30 260.50 L 271.10 259.50 L 271.90 258.50 L 272.70 257.50 L 273.30 256.50 L 274.10 255.50 L 274.90 254.50 L 275.50 253.50 L 276.10 252.50 L 276.90 251.50 L 277.50 250.50 L 278.10 249.50 L 278.90 248.50 L 279.50 247.50 L 280.10 246.50 L 280.70 245.50 L 281.30 244.50 L 281.70 243.50 L 282.30 242.50 L 282.70 241.50 L 283.30 240.50 L 283.70 239.50 L 284.30 238.50 L 284.70 237.50 L 285.10 236.50 L 285.50 235.50 L 285.90 234.50 L 286.30 233.50 L 286.70 232.50 L 287.10 231.50 L 287.50 230.50 L 287.90 229.50 L 288.10 228.50 L 288.50 227.50 L 288.90 226.50 L 289.10 225.50 L 289.30 224.50 L 289.70 223.50 L 289.90 222.50 L 290.10 221.50 L 290.30 220.50 L 290.70 219.50 L 290.90 218.50 L 291.10 217.50 L 291.30 216.50 L 291.50 215.50 L 291.50 214.50 L 291.70 213.50 L 291.90 212.50 L 292.10 211.50 L 292.30 210.50 L 292.50 209.50 L 292.50 208.50 L 292.50 207.50 L 292.50 206.50 L 292.50 205.50 L 292.50 204.50 L 292.50 203.50 L 292.50 202.50 L 292.50 201.50 L 292.50 200.50 L 292.50 199.50 L 292.50 198.50 L 292.50 197.50 L 292.50 196.50 L 292.50 195.50 L 292.50 194.50 L 292.50 193.50 L 292.50 192.50 L 292.50 191.50 L 292.50 190.50 L 292.50 189.50 L 292.50 188.50 L 292.50 187.50 L 292.50 186.50 L 292.30 185.50 L 292.10 184.50 L 291.90 183.50 L 291.70 182.50 L 291.50 181.50 L 291.50 180.50 L 291.50 179.50 L 291.30 178.50 L 291.10 177.50 L 290.90 176.50 L 290.70 175.50 L 290.30 174.50 L 290.10 173.50 L 289.90 172.50 L 289.70 171.50 L 289.30 170.50 L 289.10 169.50 L 288.90 168.50 L 288.50 167.50 L 288.10 166.50 L 287.90 165.50 L 287.50 164.50 L 287.10 163.50 L 286.70 162.50 L 286.30 161.50 L 285.70 160.50 L 285.30 159.50 L 284.90 158.50 L 284.50 157.50 L 283.90 156.50 L 283.50 155.50 L 282.90 154.50 L 282.30 153.50 L 281.70 152.50 L 281.30 151.50 L 280.70 150.50 L 280.10 149.50 L 279.50 148.50 L 278.90 147.50 L 278.10 146.50 L 277.50 145.50 L 276.90 144.50 L 276.10 143.50 L 275.30 142.50 L 274.70 141.50 L 273.90 140.50 L 273.10 139.50 L 272.30 138.50 L 271.50 137.50 L 270.50 136.50 L 269.50 135.50 L 268.50 134.50 L 267.50 133.50 L 266.50 132.50 L 265.50 131.50 L 264.50 130.50 L 263.50 129.70 L 262.50 128.90 L 261.50 128.10 L 260.50 127.30 L 259.50 126.70 L 258.50 125.90 L 257.50 125.10 L 256.50 124.50 L 255.50 123.90 L 254.50 123.10 L 253.50 122.50 L 252.50 121.90 L 251.50 121.30 L 250.50 120.70 L 249.50 120.30 L 248.50 119.70 L 247.50 119.30 L 246.50 118.70 L 245.50 118.30 L 244.50 117.70 L 243.50 117.30 L 242.50 116.90 L 241.50 116.50 L 240.50 116.10 L 239.50 115.90 L 238.50 115.50 L 237.50 115.10 L 236.50 114.90 L 235.50 114.50 L 234.50 114.10 L 233.50 113.90 L 232.50 113.70 L 231.50 113.50 L 230.50 113.30 L 229.50 113.10 L 228.50 112.90 L 227.50 112.70 L 226.50 112.50 L 225.50 112.30 L 224.50 112.10 L 223.50 111.90 L 222.50 111.70 L 221.50 111.50 L 220.50 111.50 L 219.50 111.50 L 218.50 111.50 L 217.50 111.30 L 216.50 111.10 L 215.50 110.90 L 214.50 110.70 L 213.50 110.50 L 212.50 110.50 L 211.50 110.50 L 210.50 110.50 L 209.50 110.70 L 208.70 111.10 L 208.10 111.70 L 207.70 112.50 L 207.50 113.50 L 207.50 114.50 L 207.50 115.50 L 207.50 116.50 L 207.50 117.50 L 207.50 118.50 L 207.50 119.50 L 207.50 120.50 L 207.50 121.50 L 207.50 122.50 L 207.50 123.50 L 207.50 124.50 L 207.50 125.50 L 207.50 126.50 L 207.50 127.50 L 207.50 128.50 L 207.50 129.50 L 207.50 130.50 L 207.50 131.50 L 207.50 132.50 L 207.50 133.50 L 207.50 134.50 L 207.50 135.50 L 207.50 136.50 L 207.50 137.50 L 207.50 138.50 L 207.50 139.50 L 207.50 140.50 L 207.50 141.50 L 207.50 142.50 L 207.50 143.50 L 207.50 144.50 L 207.50 145.50 L 207.50 146.50 L 207.50 147.50 L 207.50 148.50 L 207.50 149.50 L 207.50 150.50 L 207.50 151.50 L 207.50 152.50 L 207.50 153.50 L 207.50 154.50 L 207.50 155.50 L 207.50 156.50 L 207.50 157.50 L 207.50 158.50 L 207.50 159.50 L 207.50 160.50 L 207.50 161.50 L 207.50 162.50 L 207.50 163.50 L 207.50 164.50 L 207.50 165.50 L 207.50 166.50 L 207.50 167.50 L 207.50 168.50 L 207.50 169.50 L 207.50 170.50 L 207.50 171.50 L 207.50 172.50 L 207.50 173.50 L 207.50 174.50 L 207.50 175.50 L 207.50 176.50 L 207.50 177.50 L 207.50 178.50 L 207.50 179.50 L 207.50 180.50 L 207.50 181.50 L 207.50 182.50 L 207.50 183.50 L 207.50 184.50 L 207.50 185.50 L 207.50 186.50 L 207.50 187.50 L 207.50 188.50 L 207.30 189.50 L 207.10 190.50 L 206.70 191.50 L 206.10 192.50 L 205.30 193.50 L 204.50 194.30 L 203.50 195.10 L 202.50 195.70 L 201.50 196.10 L 200.50 196.30 L 199.50 196.50 L 198.50 196.50 L 197.50 196.50 L 196.50 196.30 L 195.50 195.90 L 194.50 195.50 L 193.50 194.90 L 192.70 194.10 L 191.90 193.30 L 191.30 192.50 L 190.90 191.50 L 190.70 190.50 L 190.50 189.50 L 190.50 188.50 L 190.50 187.50 L 190.50 186.50 L 190.50 185.50 L 190.50 184.50 L 190.50 183.50 L 190.50 182.50 L 190.50 181.50 L 190.50 180.50 L 190.50 179.50 L 190.50 178.50 L 190.50 177.50 L 190.50 176.50 L 190.50 175.50 L 190.50 174.50 L 190.50 173.50 L 190.50 172.50 L 190.50 171.50 L 190.50 170.50 L 190.50 169.50 L 190.50 168.50 L 190.50 167.50 L 190.50 166.50 L 190.50 165.50 L 190.50 164.50 L 190.50 163.50 L 190.50 162.50 L 190.50 161.50 L 190.50 160.50 L 190.50 159.50 L 190.50 158.50 L 190.50 157.50 L 190.50 156.50 L 190.50 155.50 L 190.50 154.50 L 190.50 153.50 L 190.50 152.50 L 190.50 151.50 L 190.50 150.50 L 190.50 149.50 L 190.50 148.50 L 190.50 147.50 L 190.50 146.50 L 190.50 145.50 L 190.50 144.50 L 190.50 143.50 L 190.50 142.50 L 190.50 141.50 L 190.50 140.50 L 190.50 139.50 L 190.50 138.50 L 190.50 137.50 L 190.50 136.50 L 190.50 135.50 L 190.50 134.50 L 190.50 133.50 L 190.50 132.50 L 190.50 131.50 L 190.50 130.50 L 190.50 129.50 L 190.50 128.50 L 190.50 127.50 L 190.50 126.50 L 190.50 125.50 L 190.50 124.50 L 190.50 123.50 L 190.50 122.50 L 190.50 121.50 L 190.50 120.50 L 190.50 119.50 L 190.50 118.50 L 190.50 117.50 L 190.50 116.50 L 190.50 115.50 L 190.50 114.50 L 190.50 113.50 L 190.50 112.50 L 190.50 111.50 L 190.50 110.50 L 190.50 109.50 L 190.50 108.50 L 190.50 107.50 L 190.50 106.50 L 190.50 105.50 L 190.50 104.50 L 190.50 103.50 L 190.50 102.50 L 190.50 101.50 L 190.50 100.50 L 190.50 99.50 L 190.50 98.50 L 190.50 97.50 L 190.50 96.50 L 190.50 95.50 L 190.70 94.50 L 191.10 93.70 Z" fill="white" />
  <path d="M 137.50 97.10 L 138.50 96.70 L 139.50 96.50 L 140.50 96.50 L 141.50 96.50 L 142.50 96.50 L 143.50 96.70 L 144.50 96.90 L 145.50 97.30 L 146.30 97.90 L 147.10 98.70 L 147.90 99.50 L 148.50 100.50 L 148.90 101.50 L 149.30 102.50 L 149.50 103.50 L 149.50 104.50 L 149.50 105.50 L 149.30 106.50 L 149.10 107.50 L 148.70 108.50 L 148.10 109.50 L 147.30 110.50 L 146.50 111.30 L 145.50 112.10 L 144.50 112.70 L 143.50 113.10 L 142.50 113.30 L 141.50 113.50 L 140.50 113.30 L 139.50 113.10 L 138.50 112.90 L 137.50 112.50 L 136.50 111.90 L 135.50 111.30 L 134.70 110.50 L 133.90 109.50 L 133.30 108.50 L 132.90 107.50 L 132.70 106.50 L 132.50 105.50 L 132.50 104.50 L 132.70 103.50 L 132.90 102.50 L 133.30 101.50 L 133.90 100.50 L 134.70 99.50 L 135.50 98.50 L 136.50 97.70 Z" fill="white" />
</svg>